<?xml version="1.0" encoding="UTF-8" standalone="no"?>
<!DOCTYPE svg PUBLIC "-//W3C//DTD SVG 1.1//EN" "http://www.w3.org/Graphics/SVG/1.1/DTD/svg11.dtd">
<svg xmlns="http://www.w3.org/2000/svg" version="1.1" viewBox="0.00 0.00 1020.00 956.00">
<path fill="#3b6baf" d="
  M 343.79 292.84
  Q 341.57 291.97 339.65 292.38
  Q 329.46 294.57 319.24 297.04
  Q 308.51 299.64 293.95 304.81
  C 275.92 311.21 259.32 320.21 243.29 330.66
  Q 236.31 335.21 229.38 339.29
  C 226.93 340.73 224.91 342.62 222.59 344.07
  C 211.89 350.72 201.63 357.74 191.38 364.86
  Q 177.20 374.72 169.30 378.98
  Q 160.65 383.65 154.99 387.06
  C 146.97 391.89 142.05 399.46 137.33 407.54
  C 133.34 414.35 127.65 418.80 121.20 423.27
  C 114.25 428.09 107.99 433.77 102.25 439.96
  C 98.14 444.39 94.25 449.06 89.93 453.16
  Q 85.54 457.32 81.35 461.63
  C 77.82 465.25 75.11 469.39 72.86 473.90
  C 66.76 486.14 59.97 499.15 51.33 509.43
  C 47.99 513.39 43.95 516.70 40.19 520.36
  C 37.29 523.20 35.57 526.56 33.37 529.87
  Q 32.25 531.57 30.30 532.02
  Q 29.71 532.16 29.22 531.80
  C 26.93 530.15 26.27 527.60 25.62 524.64
  Q 24.07 517.54 22.52 510.23
  C 20.51 500.70 19.23 495.96 23.08 488.06
  C 28.25 477.43 33.52 466.93 38.34 455.89
  C 44.15 442.60 50.97 430.78 59.42 418.97
  Q 70.75 403.15 76.13 396.59
  C 93.65 375.24 110.25 354.92 128.75 337.49
  C 134.91 331.68 142.20 326.85 148.06 321.33
  C 152.17 317.46 155.65 313.72 160.38 310.30
  C 170.45 303.01 180.21 296.24 189.85 288.86
  C 194.29 285.47 198.69 282.14 203.62 279.41
  Q 215.16 273.03 226.99 265.77
  C 237.27 259.47 247.84 253.77 258.27 248.03
  Q 263.33 245.24 268.63 242.83
  C 277.11 238.97 287.21 236.53 294.87 232.56
  Q 312.24 223.55 327.46 218.01
  Q 348.42 210.37 370.52 206.07
  Q 382.65 203.70 388.43 202.34
  Q 390.37 201.89 392.28 201.61
  C 394.95 201.21 397.38 200.18 400.02 199.93
  C 403.52 199.59 406.73 198.36 410.21 198.06
  Q 413.57 197.77 416.79 197.05
  Q 421.97 195.90 427.10 196.07
  C 432.20 196.23 436.98 194.37 441.86 194.32
  Q 453.85 194.18 466.71 194.24
  C 472.36 194.27 477.64 195.90 483.24 195.94
  C 492.64 196.00 505.97 199.52 513.67 206.30
  Q 519.73 211.64 526.22 218.29
  C 535.62 227.93 549.06 230.53 562.34 229.09
  Q 568.61 228.42 575.94 229.76
  Q 580.23 230.55 583.74 232.37
  Q 591.27 236.29 600.00 240.48
  Q 608.31 244.47 615.21 249.04
  Q 627.50 257.18 634.21 262.90
  Q 642.73 270.15 651.75 278.52
  C 657.79 284.11 664.74 288.97 671.36 294.09
  Q 673.66 295.87 677.24 294.80
  Q 677.79 294.64 677.94 294.08
  Q 678.51 291.94 678.04 290.03
  Q 673.68 272.20 662.80 251.13
  Q 652.14 230.50 646.31 221.22
  Q 638.07 208.11 634.72 200.48
  Q 627.66 184.41 621.00 166.83
  Q 618.01 158.95 613.06 152.27
  C 609.95 148.07 605.05 145.34 600.88 142.18
  C 592.35 135.72 585.65 128.02 579.39 119.05
  C 571.57 107.85 563.10 96.12 554.03 85.98
  C 547.26 78.41 538.53 70.50 530.18 63.54
  C 522.94 57.51 516.09 51.50 509.26 45.15
  Q 498.88 35.48 487.25 28.17
  Q 482.73 25.33 479.67 20.97
  A 1.95 1.95 0.0 0 1 479.90 18.45
  C 483.69 14.74 488.55 19.28 491.89 21.43
  C 495.28 23.61 499.30 22.69 502.72 20.91
  Q 511.06 16.57 518.18 13.34
  C 525.11 10.19 529.50 15.65 532.75 20.75
  C 534.70 23.83 538.89 25.06 542.28 24.88
  C 552.38 24.32 561.20 27.46 568.71 34.05
  Q 572.76 37.60 577.04 40.92
  Q 592.39 52.79 608.19 69.16
  Q 642.04 104.26 672.50 143.15
  Q 679.01 151.46 683.98 158.80
  Q 703.97 188.31 719.67 217.94
  C 727.58 232.88 734.52 248.59 741.17 264.51
  Q 744.19 271.73 746.26 279.78
  Q 747.93 286.26 750.45 292.01
  Q 754.99 302.41 759.11 313.43
  Q 763.18 324.30 768.36 341.14
  Q 769.18 343.78 769.84 346.81
  C 770.74 350.92 771.71 354.48 772.52 359.15
  Q 773.07 362.38 774.07 365.83
  C 774.55 367.51 774.34 369.81 774.98 371.71
  Q 776.22 375.38 776.43 378.79
  Q 776.61 381.80 777.41 384.60
  Q 778.63 388.83 778.65 393.60
  C 778.68 398.33 780.44 402.66 780.76 407.49
  C 781.05 411.89 782.71 415.82 783.06 420.36
  C 783.31 423.69 784.71 426.66 784.91 430.05
  Q 785.65 443.00 784.83 456.87
  C 784.64 459.99 783.08 462.82 783.01 466.07
  Q 782.92 470.27 781.58 474.24
  C 780.65 476.99 780.83 479.87 780.20 482.69
  Q 779.29 486.83 778.32 491.87
  Q 777.44 496.43 775.34 503.72
  Q 770.25 521.40 761.30 534.58
  Q 756.34 541.90 750.68 549.19
  C 746.17 555.01 744.40 562.22 743.36 569.63
  C 742.23 577.67 738.57 585.99 734.66 593.21
  C 730.39 601.08 726.49 609.40 721.76 616.78
  Q 709.71 635.58 693.62 651.03
  C 689.96 654.55 685.86 657.23 681.94 660.44
  Q 680.55 661.58 679.97 663.15
  C 679.38 664.72 680.24 666.56 681.98 666.94
  Q 684.38 667.47 686.38 666.94
  Q 695.42 664.54 702.74 663.21
  C 716.54 660.70 729.52 656.90 741.89 651.14
  Q 749.82 647.44 757.92 643.35
  Q 782.62 630.88 806.16 621.14
  C 811.64 618.88 817.64 616.93 823.70 616.67
  C 830.85 616.36 836.33 617.53 840.13 610.09
  C 843.59 603.32 848.04 596.85 854.67 593.26
  Q 862.35 589.10 869.44 584.79
  C 877.46 579.91 884.97 572.89 892.62 566.83
  Q 896.21 563.98 899.72 560.64
  C 904.43 556.14 909.64 552.56 914.97 548.99
  Q 918.98 546.29 922.57 542.55
  C 931.55 533.20 940.74 523.03 951.07 515.50
  C 958.41 510.15 966.35 504.49 971.69 497.14
  Q 978.13 488.27 984.92 479.02
  C 986.32 477.11 988.36 475.17 990.27 473.69
  Q 993.45 471.22 996.90 473.93
  A 1.98 1.98 0.0 0 1 997.45 476.38
  Q 994.09 483.09 989.82 489.77
  C 987.98 492.64 984.73 498.36 986.43 501.79
  C 990.80 510.65 998.12 492.85 1004.18 500.93
  C 1006.28 503.74 1001.29 509.61 999.49 511.58
  Q 990.99 520.86 983.87 531.26
  C 980.43 536.28 979.17 542.44 978.32 548.51
  C 977.42 554.92 974.93 558.95 969.87 563.22
  Q 963.12 568.92 957.12 575.90
  C 950.69 583.35 944.47 590.31 936.88 596.45
  Q 926.81 604.58 920.59 610.61
  Q 904.77 625.94 895.25 633.52
  Q 889.47 638.12 884.35 642.32
  C 878.42 647.18 872.35 651.69 866.34 656.33
  C 860.21 661.06 853.47 665.61 846.74 669.63
  Q 826.58 681.67 804.34 693.62
  Q 796.44 697.87 788.52 701.39
  Q 772.43 708.54 755.66 716.04
  Q 751.86 717.74 747.86 719.19
  Q 743.98 720.59 740.69 721.67
  Q 719.13 728.76 699.01 735.55
  Q 689.06 738.91 680.30 741.30
  Q 669.45 744.27 661.23 745.91
  Q 630.56 752.03 621.74 753.02
  Q 612.37 754.07 604.19 755.11
  Q 595.11 756.27 586.62 756.35
  Q 559.54 756.59 533.13 756.27
  Q 528.76 756.22 524.60 755.61
  Q 519.87 754.93 515.50 754.22
  C 491.44 750.32 467.42 741.24 446.09 729.66
  C 438.89 725.74 434.92 716.72 429.55 712.32
  Q 420.56 704.95 408.18 701.51
  C 399.48 699.08 390.12 697.59 382.69 692.79
  Q 375.87 688.38 363.47 679.33
  Q 355.48 673.51 351.23 669.31
  Q 342.94 661.10 333.47 650.29
  C 332.23 648.87 330.25 647.56 328.31 647.75
  C 321.60 648.40 326.37 659.62 327.52 662.87
  Q 328.35 665.21 328.95 667.51
  Q 331.80 678.47 336.01 688.96
  Q 345.81 713.35 359.01 736.10
  C 363.17 743.27 366.57 750.61 368.08 758.53
  C 368.73 761.94 369.78 765.18 370.23 768.62
  Q 370.67 771.98 373.03 775.32
  C 376.38 780.06 382.50 782.70 386.59 787.03
  Q 396.03 797.03 400.69 805.89
  C 404.09 812.37 407.13 819.46 411.39 825.34
  Q 419.31 836.25 427.50 843.28
  Q 439.94 853.97 443.02 856.99
  Q 447.90 861.78 452.46 866.12
  Q 454.34 867.91 462.49 874.31
  Q 473.78 883.17 481.89 895.52
  C 487.04 903.36 490.29 908.93 497.94 912.61
  Q 504.57 915.80 509.77 918.95
  Q 519.55 924.89 529.19 931.07
  C 534.43 934.42 539.00 938.19 544.03 941.56
  C 548.89 944.80 548.58 950.08 541.88 950.45
  Q 524.90 951.39 509.77 943.94
  C 506.69 942.42 501.85 942.91 498.33 943.46
  Q 485.12 945.52 475.87 944.50
  Q 471.77 944.05 467.65 942.00
  Q 457.74 937.08 450.64 931.60
  C 438.96 922.61 425.78 912.26 415.02 901.79
  Q 407.61 894.59 400.49 888.12
  C 391.38 879.82 382.87 869.66 373.74 860.73
  C 362.22 849.47 352.31 836.79 341.42 824.92
  Q 322.41 804.18 303.43 776.83
  C 298.59 769.85 294.66 763.05 291.78 754.99
  C 286.32 739.74 279.24 726.02 271.07 711.46
  C 260.55 692.69 251.63 673.04 244.43 652.82
  C 239.27 638.31 235.64 622.70 232.06 607.49
  C 231.33 604.41 230.97 601.32 230.19 598.18
  Q 227.70 588.26 227.46 583.60
  Q 226.84 571.87 226.29 559.12
  C 225.98 552.11 225.01 545.08 225.10 537.79
  C 225.15 534.08 226.68 530.84 226.75 527.24
  Q 226.97 516.87 227.06 507.14
  Q 227.08 504.43 227.89 501.90
  C 229.02 498.35 229.13 494.86 230.03 491.27
  Q 230.74 488.45 231.10 485.37
  Q 232.54 473.25 240.87 464.35
  Q 244.56 460.40 248.35 456.11
  C 254.42 449.26 256.85 440.99 257.88 431.77
  Q 258.36 427.47 258.05 423.14
  Q 257.34 413.43 260.96 404.06
  C 267.25 387.74 276.22 373.17 286.71 358.16
  Q 299.08 340.45 310.85 325.59
  Q 318.59 315.82 327.23 309.62
  Q 333.67 305.00 342.06 300.02
  Q 345.77 297.81 344.50 293.61
  Q 344.33 293.05 343.79 292.84
  Z
  M 337.95 493.79
  Q 343.68 504.88 346.36 508.66
  Q 369.76 541.67 391.08 573.63
  Q 393.51 577.27 402.08 586.80
  C 405.93 591.08 408.67 596.12 408.67 601.99
  C 408.67 606.00 412.82 608.67 416.10 609.93
  C 421.81 612.12 425.90 616.60 431.26 619.50
  C 438.81 623.58 446.69 627.29 453.73 631.99
  Q 463.38 638.45 472.78 644.50
  Q 475.07 645.97 477.36 647.08
  Q 490.58 653.47 503.20 659.30
  Q 504.63 659.96 509.39 661.67
  C 520.06 665.51 529.85 661.94 538.35 654.82
  Q 542.24 651.56 545.88 648.58
  Q 550.69 644.65 557.79 640.05
  Q 574.72 629.11 590.94 619.20
  Q 596.03 616.08 601.77 613.26
  Q 607.37 610.51 609.94 604.61
  C 612.68 598.30 616.66 590.72 622.14 586.37
  Q 634.53 576.53 648.38 571.07
  C 655.19 568.38 664.39 564.44 668.90 558.49
  Q 673.84 551.96 679.59 547.38
  Q 682.54 545.03 683.97 541.45
  Q 684.16 541.00 684.01 540.53
  Q 683.37 538.39 682.25 536.45
  Q 678.50 529.89 675.15 523.25
  Q 673.27 519.51 675.19 515.64
  Q 681.70 502.54 688.54 488.12
  C 691.04 482.85 694.33 476.95 692.10 471.05
  C 687.55 459.01 681.12 447.62 673.46 436.85
  C 664.26 423.91 656.02 410.66 646.37 398.20
  C 636.60 385.61 625.75 375.10 614.44 364.27
  Q 611.26 361.23 600.29 350.11
  C 586.56 336.22 571.17 322.38 554.52 311.65
  C 544.02 304.87 533.37 299.13 521.75 295.72
  Q 509.49 292.13 498.78 298.19
  Q 496.44 299.52 494.18 300.62
  Q 481.56 306.81 467.81 312.69
  C 464.48 314.12 461.10 316.54 458.81 319.40
  C 452.25 327.57 445.74 333.28 436.72 338.72
  Q 427.03 344.56 417.47 352.49
  Q 411.99 357.04 405.35 363.69
  Q 387.45 381.66 373.14 396.54
  Q 368.17 401.71 363.08 408.45
  C 353.51 421.12 341.62 432.07 333.72 445.62
  C 328.31 454.89 327.99 467.65 331.02 477.47
  Q 333.21 484.62 337.95 493.79
  Z"
/>
<path fill="#3b6baf" d="
  M 558.85 508.80
  Q 554.51 518.55 547.53 527.22
  C 541.38 534.85 529.57 534.96 520.47 533.86
  Q 513.92 533.07 505.91 531.50
  Q 494.91 529.33 486.74 526.57
  Q 482.07 525.00 479.51 521.41
  Q 471.55 510.27 465.24 504.26
  Q 459.70 498.98 454.09 493.54
  C 450.21 489.78 448.50 485.16 448.97 479.78
  C 450.88 458.20 465.62 446.36 483.37 436.97
  Q 493.04 431.86 501.69 427.57
  C 506.09 425.40 512.32 423.35 517.38 424.51
  Q 526.70 426.64 535.03 430.07
  C 548.11 435.46 557.95 448.57 561.91 461.95
  Q 569.03 485.97 558.85 508.80
  Z"
/>
</svg>
