<?xml version="1.0" encoding="UTF-8" standalone="no"?>
<!DOCTYPE svg PUBLIC "-//W3C//DTD SVG 1.1//EN" "http://www.w3.org/Graphics/SVG/1.1/DTD/svg11.dtd">
<svg xmlns="http://www.w3.org/2000/svg" version="1.1" viewBox="0 0 471 600">
<path fill="#5096bd" d="
  M 129.92 37.87
  L 317.01 258.54
  A 0.61 0.60 -37.0 0 1 316.88 259.44
  L 214.19 327.35
  A 0.79 0.79 0.0 0 0 213.97 328.45
  L 367.88 557.85
  Q 367.95 557.96 367.83 557.99
  C 367.57 558.07 176.57 327.19 158.97 305.95
  A 0.45 0.44 -35.9 0 1 159.08 305.30
  L 263.94 238.92
  Q 264.41 238.62 264.10 238.16
  L 129.63 38.09
  A 0.18 0.18 0.0 0 1 129.92 37.87
  Z"
/>
<path fill="#5096bd" d="
  M 383.38 258.78
  Q 310.96 160.42 238.26 61.59
  Q 238.19 61.49 231.89 53.23
  Q 227.47 47.43 223.33 41.30
  Q 222.03 39.37 223.59 41.10
  L 433.70 273.98
  Q 434.11 274.44 433.63 274.83
  L 312.69 374.46
  Q 312.28 374.80 312.55 375.26
  Q 367.66 468.62 422.93 561.87
  C 423.04 562.06 423.04 562.20 422.96 562.38
  Q 422.94 562.44 422.90 562.39
  Q 346.93 455.26 270.76 348.26
  A 0.47 0.47 0.0 0 1 270.85 347.61
  L 383.22 259.95
  Q 383.87 259.44 383.38 258.78
  Z"
/>
<path fill="#5096bd" d="
  M 266.31 513.20
  L 44.58 272.21
  Q 44.19 271.79 44.67 271.48
  L 150.19 203.69
  Q 150.66 203.39 150.34 202.93
  L 38.16 44.62
  A 0.13 0.13 0.0 0 1 38.36 44.45
  L 198.16 216.43
  A 0.21 0.21 0.0 0 1 198.12 216.75
  L 101.35 280.57
  Q 100.93 280.84 101.22 281.25
  C 115.41 301.10 267.05 512.41 266.69 513.15
  A 0.23 0.22 36.3 0 1 266.31 513.20
  Z"
/>
</svg>
