<?xml version="1.0" encoding="UTF-8"?>
<svg id="Layer_1" xmlns="http://www.w3.org/2000/svg" version="1.1" viewBox="0 0 1020 956">
  <!-- Generator: Adobe Illustrator 29.5.1, SVG Export Plug-In . SVG Version: 2.1.0 Build 141)  -->
  <defs>
    <style>
      .st0 {
        fill: #a80b0c;
      }
    </style>
  </defs>
  <path class="st0" d="M343.8,292.8c-1.5-.6-2.9-.7-4.1-.5-6.8,1.5-13.6,3-20.4,4.7-7.2,1.7-15.6,4.3-25.3,7.8-18,6.4-34.6,15.4-50.7,25.9-4.7,3-9.3,5.9-13.9,8.6-2.5,1.4-4.5,3.3-6.8,4.8-10.7,6.6-21,13.7-31.2,20.8-9.5,6.6-16.8,11.3-22.1,14.1-5.8,3.1-10.5,5.8-14.3,8.1-8,4.8-12.9,12.4-17.7,20.5-4,6.8-9.7,11.3-16.1,15.7-6.9,4.8-13.2,10.5-18.9,16.7-4.1,4.4-8,9.1-12.3,13.2-2.9,2.8-5.8,5.6-8.6,8.5-3.5,3.6-6.2,7.8-8.5,12.3-6.1,12.2-12.9,25.2-21.5,35.5-3.3,4-7.4,7.3-11.1,10.9-2.9,2.8-4.6,6.2-6.8,9.5-.7,1.1-1.8,1.9-3.1,2.2-.4,0-.8,0-1.1-.2-2.3-1.6-2.9-4.2-3.6-7.2-1-4.7-2.1-9.5-3.1-14.4-2-9.5-3.3-14.3.6-22.2,5.2-10.6,10.4-21.1,15.3-32.2,5.8-13.3,12.6-25.1,21.1-36.9,7.6-10.5,13.1-18,16.7-22.4,17.5-21.4,34.1-41.7,52.6-59.1,6.2-5.8,13.4-10.6,19.3-16.2,4.1-3.9,7.6-7.6,12.3-11,10.1-7.3,19.8-14.1,29.5-21.4,4.4-3.4,8.8-6.7,13.8-9.4,7.7-4.3,15.5-8.8,23.4-13.6,10.3-6.3,20.8-12,31.3-17.7,3.4-1.9,6.8-3.6,10.4-5.2,8.5-3.9,18.6-6.3,26.2-10.3,11.6-6,22.4-10.9,32.6-14.6,14-5.1,28.3-9.1,43.1-11.9,8.1-1.6,14.1-2.8,17.9-3.7,1.3-.3,2.6-.5,3.9-.7,2.7-.4,5.1-1.4,7.7-1.7,3.5-.3,6.7-1.6,10.2-1.9,2.2-.2,4.4-.5,6.6-1,3.5-.8,6.9-1.1,10.3-1,5.1.2,9.9-1.7,14.8-1.8,8,0,16.3-.1,24.9,0,5.6,0,10.9,1.7,16.5,1.7,9.4,0,22.7,3.6,30.4,10.4,4,3.6,8.2,7.6,12.5,12,9.4,9.6,22.8,12.2,36.1,10.8,4.2-.4,8.7-.2,13.6.7,2.9.5,5.5,1.4,7.8,2.6,5,2.6,10.4,5.3,16.3,8.1,5.5,2.7,10.6,5.5,15.2,8.6,8.2,5.4,14.5,10,19,13.9,5.7,4.8,11.5,10,17.5,15.6s13,10.5,19.6,15.6c1.5,1.2,3.5,1.4,5.9.7.4-.1.6-.3.7-.7.4-1.4.4-2.8,0-4-2.9-11.9-8-24.9-15.2-38.9-7.1-13.8-12.6-23.7-16.5-29.9-5.5-8.7-9.4-15.7-11.6-20.7-4.7-10.7-9.3-21.9-13.7-33.6-2-5.3-4.6-10.1-7.9-14.6-3.1-4.2-8-6.9-12.2-10.1-8.5-6.5-15.2-14.2-21.5-23.1-7.8-11.2-16.3-22.9-25.4-33.1-6.8-7.6-15.5-15.5-23.9-22.4-7.2-6-14.1-12-20.9-18.4-6.9-6.4-14.3-12.1-22-17-3-1.9-5.5-4.3-7.6-7.2-.6-.8-.5-1.9.2-2.5,3.8-3.7,8.6.8,12,3s7.4,1.3,10.8-.5c5.6-2.9,10.7-5.4,15.5-7.6,6.9-3.2,11.3,2.3,14.6,7.4,2,3.1,6.1,4.3,9.5,4.1,10.1-.6,18.9,2.6,26.4,9.2,2.7,2.4,5.5,4.7,8.3,6.9,10.2,7.9,20.6,17.3,31.2,28.2,22.6,23.4,44,48.1,64.3,74,4.3,5.5,8.2,10.8,11.5,15.7,13.3,19.7,25.2,39.4,35.7,59.1,7.9,14.9,14.9,30.6,21.5,46.6,2,4.8,3.7,9.9,5.1,15.3,1.1,4.3,2.5,8.4,4.2,12.2,3,6.9,5.9,14.1,8.7,21.4,2.7,7.2,5.8,16.5,9.2,27.7.5,1.8,1,3.6,1.5,5.7.9,4.1,1.9,7.7,2.7,12.3.4,2.2.9,4.4,1.5,6.7.5,1.7.3,4,.9,5.9.8,2.4,1.3,4.8,1.5,7.1.1,2,.4,3.9,1,5.8.8,2.8,1.2,5.8,1.2,9,0,4.7,1.8,9.1,2.1,13.9.3,4.4,2,8.3,2.3,12.9.2,3.3,1.7,6.3,1.8,9.7.5,8.6.5,17.6,0,26.8-.2,3.1-1.8,6-1.8,9.2,0,2.8-.5,5.5-1.4,8.2-.9,2.8-.8,5.6-1.4,8.5-.6,2.8-1.2,5.8-1.9,9.2-.6,3-1.6,7-3,11.9-3.4,11.8-8.1,22.1-14,30.9-3.3,4.9-6.8,9.8-10.6,14.6-4.5,5.8-6.3,13-7.3,20.4-1.1,8-4.8,16.4-8.7,23.6-4.3,7.9-8.2,16.2-12.9,23.6-8,12.5-17.4,24-28.1,34.2-3.7,3.5-7.8,6.2-11.7,9.4-.9.8-1.6,1.7-2,2.7-.6,1.6.3,3.4,2,3.8,1.6.4,3.1.4,4.4,0,6-1.6,11.5-2.8,16.4-3.7,13.8-2.5,26.8-6.3,39.2-12.1,5.3-2.5,10.6-5.1,16-7.8,16.5-8.3,32.5-15.7,48.2-22.2,5.5-2.3,11.5-4.2,17.5-4.5,7.1-.3,12.6.9,16.4-6.6,3.5-6.8,7.9-13.2,14.5-16.8,5.1-2.8,10-5.6,14.8-8.5,8-4.9,15.5-11.9,23.2-18,2.4-1.9,4.8-4,7.1-6.2,4.7-4.5,9.9-8.1,15.2-11.7,2.7-1.8,5.2-3.9,7.6-6.4,9-9.3,18.2-19.5,28.5-27,7.3-5.4,15.3-11,20.6-18.4,4.3-5.9,8.7-12,13.2-18.1,1.4-1.9,3.4-3.8,5.4-5.3,2.1-1.6,4.3-1.6,6.6.2.7.6,1,1.6.5,2.5-2.2,4.5-4.8,8.9-7.6,13.4-1.8,2.9-5.1,8.6-3.4,12,4.4,8.9,11.7-8.9,17.8-.9,2.1,2.8-2.9,8.7-4.7,10.6-5.7,6.2-10.9,12.7-15.6,19.7-3.4,5-4.7,11.2-5.5,17.2-.9,6.4-3.4,10.4-8.5,14.7-4.5,3.8-8.8,8-12.8,12.7-6.4,7.4-12.7,14.4-20.2,20.5-6.7,5.4-12.1,10.1-16.3,14.2-10.5,10.2-19,17.9-25.3,22.9-3.9,3.1-7.5,6-10.9,8.8-5.9,4.9-12,9.4-18,14-6.1,4.7-12.9,9.3-19.6,13.3-13.4,8-27.6,16-42.4,24-5.3,2.8-10.5,5.4-15.8,7.8-10.7,4.8-21.7,9.6-32.9,14.6-2.5,1.1-5.1,2.2-7.8,3.2-2.6.9-5,1.8-7.2,2.5-14.4,4.7-28.3,9.4-41.7,13.9-6.6,2.2-12.9,4.2-18.7,5.8-7.2,2-13.6,3.5-19.1,4.6-20.4,4.1-33.6,6.5-39.5,7.1-6.2.7-12.1,1.4-17.5,2.1-6.1.8-11.9,1.2-17.6,1.2-18.1.2-35.9.1-53.5,0-2.9,0-5.8-.3-8.5-.7-3.2-.5-6.2-.9-9.1-1.4-24.1-3.9-48.1-13-69.4-24.6-7.2-3.9-11.2-12.9-16.5-17.3-6-4.9-13.1-8.5-21.4-10.8-8.7-2.4-18.1-3.9-25.5-8.7-4.5-2.9-11-7.4-19.2-13.5-5.3-3.9-9.4-7.2-12.2-10-5.5-5.5-11.4-11.8-17.8-19-1.2-1.4-3.2-2.7-5.2-2.5-6.7.7-1.9,11.9-.8,15.1.6,1.6,1,3.1,1.4,4.6,1.9,7.3,4.3,14.5,7.1,21.5,6.5,16.3,14.2,32,23,47.1,4.2,7.2,7.6,14.5,9.1,22.4.7,3.4,1.7,6.6,2.2,10.1.3,2.2,1.2,4.5,2.8,6.7,3.4,4.7,9.5,7.4,13.6,11.7,6.3,6.7,11,13,14.1,18.9,3.4,6.5,6.4,13.6,10.7,19.5,5.3,7.3,10.6,13.3,16.1,17.9,8.3,7.1,13.5,11.7,15.5,13.7,3.3,3.2,6.4,6.2,9.4,9.1,1.3,1.2,4.6,3.9,10,8.2,7.5,5.9,14,13,19.4,21.2,5.1,7.8,8.4,13.4,16,17.1,4.4,2.1,8.4,4.2,11.8,6.3,6.5,4,13,8,19.4,12.1,5.2,3.3,9.8,7.1,14.8,10.5,4.9,3.2,4.5,8.5-2.2,8.9-11.3.6-22-1.5-32.1-6.5-3.1-1.5-7.9-1-11.4-.5-8.8,1.4-16.3,1.7-22.5,1-2.7-.3-5.5-1.1-8.2-2.5-6.6-3.3-12.3-6.7-17-10.4-11.7-9-24.9-19.3-35.6-29.8-4.9-4.8-9.8-9.4-14.5-13.7-9.1-8.3-17.6-18.5-26.8-27.4-11.5-11.3-21.4-23.9-32.3-35.8-12.7-13.8-25.3-29.9-38-48.1-4.8-7-8.8-13.8-11.6-21.8-5.5-15.2-12.5-29-20.7-43.5-10.5-18.8-19.4-38.4-26.6-58.6-5.2-14.5-8.8-30.1-12.4-45.3-.7-3.1-1.1-6.2-1.9-9.3-1.7-6.6-2.6-11.5-2.7-14.6-.4-7.8-.8-16-1.2-24.5-.3-7-1.3-14-1.2-21.3,0-3.7,1.6-6.9,1.6-10.5.1-6.9.2-13.6.3-20.1,0-1.8.3-3.6.8-5.2,1.1-3.5,1.2-7,2.1-10.6.5-1.9.8-3.8,1.1-5.9,1-8.1,4.2-15.1,9.8-21,2.5-2.6,5-5.4,7.5-8.2,6.1-6.8,8.5-15.1,9.5-24.3.3-2.9.4-5.7.2-8.6-.5-6.5.5-12.8,2.9-19.1,6.3-16.3,15.3-30.9,25.8-45.9,8.2-11.8,16.3-22.7,24.1-32.6,5.2-6.5,10.6-11.8,16.4-16,4.3-3.1,9.2-6.3,14.8-9.6,2.5-1.5,3.3-3.6,2.4-6.4-.1-.4-.4-.6-.7-.8l.1-.8ZM338,493.8c3.8,7.4,6.6,12.4,8.4,14.9,15.6,22,30.5,43.7,44.7,65,1.6,2.4,5.3,6.8,11,13.2,3.9,4.3,6.6,9.3,6.6,15.2s4.1,6.7,7.4,7.9c5.7,2.2,9.8,6.7,15.2,9.6,7.5,4.1,15.4,7.8,22.5,12.5,6.4,4.3,12.8,8.5,19,12.5,1.5,1,3.1,1.8,4.6,2.6,8.8,4.3,17.4,8.3,25.8,12.2,1,.4,3,1.2,6.2,2.4,10.7,3.8,20.5.3,29-6.8,2.6-2.2,5.1-4.3,7.5-6.2,3.2-2.6,7.2-5.5,11.9-8.5,11.3-7.3,22.3-14.2,33.2-20.8,3.4-2.1,7-4.1,10.8-5.9,3.7-1.8,6.5-4.7,8.2-8.7,2.7-6.3,6.7-13.9,12.2-18.2,8.3-6.6,17-11.7,26.2-15.3,6.8-2.7,16-6.6,20.5-12.6,3.3-4.4,6.9-8.1,10.7-11.1,2-1.6,3.4-3.5,4.4-5.9.1-.3.1-.6,0-.9-.4-1.4-1-2.8-1.8-4.1-2.5-4.4-4.9-8.8-7.1-13.2-1.3-2.5-1.2-5,0-7.6,4.3-8.7,8.8-17.9,13.3-27.5,2.5-5.3,5.8-11.2,3.6-17.1-4.5-12-11-23.4-18.6-34.2-9.2-12.9-17.4-26.2-27.1-38.6-9.8-12.6-20.6-23.1-31.9-33.9-2.1-2-6.8-6.7-14.2-14.2-13.7-13.9-29.1-27.7-45.8-38.5-10.5-6.8-21.2-12.5-32.8-15.9-8.2-2.4-15.8-1.6-23,2.5-1.6.9-3.1,1.7-4.6,2.4-8.4,4.1-17.2,8.1-26.4,12.1-3.3,1.4-6.7,3.9-9,6.7-6.6,8.2-13.1,13.9-22.1,19.3-6.5,3.9-12.9,8.5-19.2,13.8-3.7,3-7.7,6.8-12.1,11.2-11.9,12-22.7,22.9-32.2,32.9-3.3,3.4-6.7,7.4-10.1,11.9-9.6,12.7-21.5,23.6-29.4,37.2-5.4,9.3-5.7,22-2.7,31.9,1.5,4.8,3.8,10.2,6.9,16.3l.3-.5Z"/>
  <path class="st0" d="M558.8,508.8c-2.9,6.5-6.7,12.6-11.3,18.4-6.2,7.6-18,7.7-27.1,6.6-4.4-.5-9.2-1.3-14.6-2.4-7.3-1.4-13.7-3.1-19.2-4.9-3.1-1-5.5-2.8-7.2-5.2-5.3-7.4-10.1-13.1-14.3-17.1-3.7-3.5-7.4-7.1-11.1-10.7-3.9-3.8-5.6-8.4-5.1-13.8,1.9-21.6,16.6-33.4,34.4-42.8,6.4-3.4,12.6-6.5,18.3-9.4,4.4-2.2,10.6-4.2,15.7-3.1,6.2,1.4,12.1,3.3,17.7,5.6,13.1,5.4,22.9,18.5,26.9,31.9,4.7,16,3.7,31.6-3.1,46.8v.1Z"/>
</svg>