<?xml version="1.0" encoding="utf-8"?>
<!-- Generator: Adobe Illustrator 16.0.0, SVG Export Plug-In . SVG Version: 6.00 Build 0)  -->
<!DOCTYPE svg PUBLIC "-//W3C//DTD SVG 1.1//EN" "http://www.w3.org/Graphics/SVG/1.1/DTD/svg11.dtd">
<svg version="1.1" id="Layer_3" xmlns="http://www.w3.org/2000/svg" xmlns:xlink="http://www.w3.org/1999/xlink" x="0px" y="0px"
	 width="1000px" height="1000px" viewBox="0 0 1000 1000" enable-background="new 0 0 1000 1000" xml:space="preserve">
<g>
	<circle fill="#FFC122" cx="500" cy="500" r="465.727"/>
	<circle fill="#741E03" cx="495.16" cy="772.66" r="151.5"/>
	<path fill="#FCF46F" d="M643.601,800.49c-13.061,70.1-74.551,123.17-148.44,123.17c-73.891,0-135.38-53.07-148.44-123.17H643.601z"
		/>
	<polygon fill="#9B5807" points="630.22,743.16 632.16,743.16 632.16,766.16 356.66,766.16 356.66,743.16 358.6,743.16 
		356.66,742.49 359.99,725.33 396.33,743.16 592.49,743.16 628.83,725.33 632.16,742.49 	"/>
	<path fill="#8E4A1D" d="M512.67,580.061V299.16c0-3.13-1.27-5.96-3.319-8.01c-2.051-2.05-4.891-3.32-8.021-3.32
		s-5.97,1.27-8.021,3.32c-2.05,2.05-3.319,4.88-3.319,8.01v280.901c-32.86,0.859-63.67,9.959-90.45,25.299
		c19.32-53.311,53.12-134.77,53.12-206.2c0-58.95-1.5-104.41-23.851-142.58c22.74-6.12,46.591-9.51,71.19-9.83
		c25.43,0.33,50.061,3.95,73.49,10.46C551.48,295.25,550,340.54,550,399.16c0,71.43,33.8,152.889,53.12,206.2
		C576.34,590.02,545.53,580.92,512.67,580.061z"/>
	<path fill="#741E03" d="M495.16,639.66c35.525,0,68.925,13.834,94.045,38.955c25.121,25.119,38.955,58.52,38.955,94.045
		s-13.834,68.924-38.955,94.045c-25.12,25.121-58.52,38.955-94.045,38.955s-68.925-13.834-94.046-38.955
		c-25.12-25.121-38.954-58.52-38.954-94.045s13.834-68.926,38.954-94.045C426.235,653.494,459.635,639.66,495.16,639.66
		 M495.16,606.66c-91.68,0-166,74.32-166,166s74.32,166,166,166s166-74.32,166-166S586.84,606.66,495.16,606.66L495.16,606.66z
		 M500,95.49c-204.2,0-369.73,163.25-369.73,364.62c0,123.83,62.591,233.24,158.271,299.13c0.8-10.08,1.96-24.5,3.61-45.131
		c-47.41-51.33-76.391-119.959-76.391-195.359c0-157.8,126.92-285.96,284.24-287.97c157.32,2.01,284.24,130.17,284.24,287.97
		c0,75.4-28.98,144.029-76.39,195.359c1.649,20.631,2.81,35.051,3.609,45.131C807.141,693.35,869.73,583.939,869.73,460.11
		C869.73,258.74,704.2,95.49,500,95.49z"/>
	<path fill="#7A380A" d="M219.993,763.326H199.16v-20.834h20.833V763.326z M166.83,707.83v-41.67h-20.84v62.5h53.17v-20.83H166.83z
		 M770.326,763.326h20.834v-20.834h-20.834V763.326z M791.16,707.83v20.83h53.17v-62.5h-20.84v41.67H791.16z"/>
</g>
</svg>
