<?xml version="1.0" encoding="UTF-8"?>
<svg xmlns="http://www.w3.org/2000/svg" viewBox="-1.134 -1.7715 952 1072">
	<path stroke="#000" stroke-width="4" d="M473.288,254.008c-6.739.032-13.609.327-20.625.906-143.381,11.833-234.756,135.308-262.875,274.281-40.568,211.472,29.9,308.076,268.562,302.875h.031c140.331,0,392.881,5.578,268.561-374.281-36.527-95.053-116.631-204.431-253.654-203.781ZM496.632,295.32c96.406,0,202.75,196.433,155.344,341.812-30.83,94.541-227.816,128.281-341.811,128.281-37.746,0-43.24-17.609-50.5-33.656-20.829-54.879,12.479-113.135,28.219-168.719,39.818-130.909,125.96-267.718,208.748-267.718Z"/>
	<path stroke="#000" stroke-width="4" d="M511.811,54.502v481.855c84.529-5.75,178.91,47.297,303.906,112.736,59.211,30.998,74.934,13.061,68.209-102.736,19.035,35.635,121.586,159.688,18.604,210.012-75.545,36.916-219.344-131.727-334.9-160.008-60.828-15.922-120.125-15.252-185.759,0-117.922,27.609-268.64,210.58-335.201,159.566-49.438-37.889-65.12-179.568-9.303-279.573l27.909,50.003c-78.19,147.826,7.344,154.777,68.511,122.736,123.812-69.326,219.372-118.486,303.906-112.736l-.298-481.855c0-34.927,14.153-52.428,37.357-52.502,23.208.079,37.059,17.58,37.059,52.502h0Z"/>
	<path stroke="#000" stroke-width="4" d="M394.898,910.699c48.586,11.246,71.014,47.104,72.102,53.562,11.613,33.586,8.992,70.072,4.465,101.854-28.491-5.213-52.99-18.428-61.807-29.523-13.808-17.925-18.77-74.657-14.76-125.893Z"/>
</svg>