<?xml version="1.0" encoding="utf-8"?>
<!-- Generator: Adobe Illustrator 23.0.1, SVG Export Plug-In . SVG Version: 6.00 Build 0)  -->
<svg version="1.1" id="Layer_3" xmlns="http://www.w3.org/2000/svg" xmlns:xlink="http://www.w3.org/1999/xlink" x="0px" y="0px"
	 viewBox="0 0 1000 1000" style="enable-background:new 0 0 1000 1000;" xml:space="preserve">
<path d="M949,285.2l-365.3,152c-14.5-26.2-42.4-44-74.5-44c-8.5,0-16.6,1.2-24.4,3.5L448.8,310c100.2-34.2,187.4-52.4,275.7-55.6
	C809.1,251.2,890.8,260.8,949,285.2z M745.6,724.5c-3.3-88.3-21.5-175.5-55.6-275.7l-86.5,36c2.1,7.5,3.3,15.3,3.3,23.5
	c0,30.2-15.7,56.7-39.5,71.8c-1.5,1.1-3.1,2.2-4.7,3.3L714.8,949C739.2,890.8,748.8,809.1,745.6,724.5z M515.2,603.4
	c-7.4,2.1-15.3,3.3-23.4,3.3c-28.8,0-54.3-14.3-69.6-36.2c-2-2.5-3.9-5.1-5.7-7.8L51,714.8c58.2,24.4,139.9,34,224.6,30.8
	c88.3-3.3,175.5-21.5,275.7-55.6L515.2,603.4z M285.2,51c-24.4,58.2-34,139.9-30.8,224.6c3.3,88.3,21.5,175.5,55.6,275.7l87.2-36.3
	c-0.4-1.8-0.7-3.6-1-5.4v0c-1.2-5.8-1.9-11.7-1.9-17.8c0-27.5,13.1-52,33.3-67.5l0,0c3.1-2.7,6.4-5.1,9.9-7.4L285.2,51z"/>
</svg>
