<?xml version="1.0" encoding="UTF-8"?>
<svg xmlns="http://www.w3.org/2000/svg" width="578" height="602" viewBox="-0.2154 -0.34174 578 602">
	<path fill="#fff" stroke="#000" stroke-width="15" stroke-miterlimit="10"
		d="M254.05032,22.69951l-2.80026,50.68689-28.57451-19.76592-3.02516,23.73791-38.41838-11.79827,5.92407,26.6972-20.52975,26.39981-47.36124-17.79858v29.76006l17.45977,32.21185-55.93707-23.53207,26.60905,47.31702-32.50128-2.95187,14.76428,35.48083-32.51551,3.00409,20.77701,26.67078v17.58072l-53.72062,7.00775,53.37336,28.46466-50.00405,20.7948,44.25389,8.87885-22.40443,15.71967,16.92164,14.48755-12.1054,31.90021h35.62009l8.70676,14.5629-11.86947,44.57477,35.46789-5.95013,2.97272,20.50769-26.68661,35.70261,44.38453-17.83765-6.01546,47.34412,44.47296-41.37396-2.95412,38.49548,17.84285-9.04614,17.6403,17.64014,23.58807,3.00702,8.87424,39.13086,27.54034-50.01544,16.85187,13.91949,17.6441-8.89197,19.1629,17.57111,6.18198-35.77112,23.68594,35.2641,4.30228-28.82629,40.28296,22.32245,2.36166-39.97586,14.59671-4.94888,21.79633,7.7197,4.48596-29.07446,28.94894,21.99887-9.61276-33.51172,6.32803-17.95023,42.61252,14.46381-30.10532-54.76968,27.28152-15.74023-8.47742-18.35193,46.84558.4202-34.18658-42.93198,41.45203-15.55237-39.87872-15.02847,9.6048-21.32727,30.17761-11.64911-45.10809-17.77893,36.72888-35.77869h-53.14932l2.78372-23.37167-18.94943-10.48267,28.59341-25.44403-21.02478-8.10428,9.69901-26.33005-33.8631,3.9819,7.01804-32.03059-27.81036,17.48637-13.29349-9.24044-31.42361,18.38242,1.07169-40.25607-24.16913,3.59662-12.02579-18.37006-22.00049,12.97083-11.18066-55.68537-30.95081,57.60925-13.85211-35.99341h-14.21744Z" />
	<path
		d="M294.90152,127.74163c-97.05066.89467-175.54221,79.94273-175.54221,177.20352,0,34.00894,9.58026,65.76352,26.21133,92.75494L294.90152,127.74163Z
		M298.22409,127.74163l149.33087,269.95847c16.6311-26.99142,26.21136-58.746,26.21136-92.75494,0-97.26079-78.49152-176.30882-175.54224-177.20352Z
		M221.43591,266.55105l75.12692,135.85602,75.12689-135.85602h-150.25381Z
		M296.56284,402.40706h-147.9465c31.71356,48.00854,86.14322,79.74161,147.9465,79.74161s116.23291-31.73306,147.94647-79.74161h-147.94647Z" />
</svg>