<?xml version="1.0" encoding="utf-8"?>
<!-- Generator: Adobe Illustrator 16.0.0, SVG Export Plug-In . SVG Version: 6.00 Build 0)  -->
<!DOCTYPE svg PUBLIC "-//W3C//DTD SVG 1.1//EN" "http://www.w3.org/Graphics/SVG/1.1/DTD/svg11.dtd">
<svg version="1.1" id="Layer_3" xmlns="http://www.w3.org/2000/svg" xmlns:xlink="http://www.w3.org/1999/xlink" x="0px" y="0px"
	 width="717px" height="841.389px" viewBox="0 0 717 841.389" enable-background="new 0 0 717 841.389" xml:space="preserve">
<path fill="#EAD63F" d="M678.625,37.889c0,0-4,229.17-11.34,327.17c-7.33,98-32.66,257.33-63.33,296.66
	c-30.67,39.34-94.25,103.34-245.46,144c-151.21-40.66-214.79-104.66-245.45-144c-30.67-39.33-56-198.66-63.34-296.66
	c-7.33-98-11.33-327.17-11.33-327.17H678.625z"/>
<path d="M592.496,469.789c-4.96,46.279-39.42,98.689-87.12,144.1c-62.5,59.5-146.88,74.25-146.88,74.25l0.02-0.02
	c0.01-0.011,0.02-0.021,0.04-0.03l-0.08,0.03c0,0,106.77-91.061,106.77-258.4c0-131.33-41.38-167.72-52.54-177.83
	c-11.88-10.75-40-21.83-54.23-21.83s-42.35,11.08-54.22,21.83c-11.17,10.11-52.55,46.5-52.55,177.83
	c0,167.34,106.77,258.4,106.77,258.4l0.02,0.02c0,0-84.37-14.75-146.87-74.25c-47.12-44.85-81.31-96.53-86.92-142.39
	c-0.06-0.471-0.12-0.94-0.17-1.4c-1.57-14.24-0.35-27.9,4.13-40.6c0.13,0.22,0.27,0.439,0.43,0.659l0.01,0.021
	c45.47,68.19,119.27,83.54,119.27,83.54s-53.33-96.66-53.33-230.66s57-164.34,57-164.34s-8.92,84.98,60.9,108.72
	c0.01,0,0.03,0.01,0.04,0.01c2.75,0.9,7.54,1.8,11.4-0.01c0.06-0.03,0.13-0.06,0.19-0.09c11.49-5.71,23.08-8.29,33.92-8.29
	c10.83,0,22.42,2.58,33.91,8.28c0.069,0.04,0.14,0.07,0.21,0.1c3.75,1.76,8.359,0.96,11.16,0.09c0.1-0.03,0.189-0.06,0.279-0.09
	c69.811-23.75,60.891-108.72,60.891-108.72s57,30.34,57,164.34s-53.33,230.66-53.33,230.66s73.83-15.35,119.29-83.58
	c0.16-0.22,0.3-0.43,0.43-0.65C592.786,442.099,594.016,455.658,592.496,469.789z"/>
<path d="M28.9,29.929v21.92c0.64,282.82,16.6,388.41,32.1,481.29c15.67,93.83,18.88,124.25,89.88,189.25s207.62,97,207.62,97
	s136.62-32,207.62-97s74.21-95.42,89.88-189.25c15.5-92.88,31.46-198.47,32.1-481.29v-21.92H28.9z M637.32,529.938
	c-1.66,8.69-3.04,16.72-4.561,24.45c-12.76,64.58-18.729,92.41-78.79,147.39c-59.979,54.9-172.58,85.86-195.47,91.73
	c-22.89-5.87-135.49-36.83-195.47-91.73c-60.061-54.979-66.03-82.81-78.78-147.39c-1.53-7.73-2.91-15.76-4.56-24.45
	c-17.12-89.859-32.15-194.28-32.79-478.09H670.1C669.46,335.659,654.42,440.079,637.32,529.938z"/>
</svg>
