<?xml version="1.0" standalone="no"?>
<!DOCTYPE svg PUBLIC "-//W3C//DTD SVG 20010904//EN"
 "http://www.w3.org/TR/2001/REC-SVG-20010904/DTD/svg10.dtd">
<svg version="1.0" xmlns="http://www.w3.org/2000/svg"
 width="527.000000pt" height="544.000000pt" viewBox="0 0 527.000000 544.000000"
 preserveAspectRatio="xMidYMid meet">

<g transform="translate(0.000000,544.000000) scale(0.100000,-0.100000)"
fill="#000000" stroke="none">
<path d="M2310 5423 c-19 -9 -111 -53 -205 -98 -93 -46 -187 -89 -207 -96 -21
-7 -38 -17 -38 -21 0 -4 -4 -8 -10 -8 -5 0 -33 -15 -62 -33 -29 -19 -80 -46
-113 -61 -33 -15 -89 -42 -125 -61 -117 -60 -228 -113 -285 -135 -38 -15 -140
-64 -145 -70 -8 -8 -76 -45 -195 -105 -60 -31 -128 -67 -150 -81 -22 -14 -48
-27 -58 -31 -9 -3 -17 -9 -17 -13 0 -5 -13 -11 -30 -15 -16 -4 -32 -11 -35
-16 -4 -5 -15 -9 -26 -9 -10 0 -19 -4 -19 -10 0 -5 -9 -10 -20 -10 -22 0 -104
-44 -134 -71 -11 -11 -23 -19 -27 -19 -21 0 -49 -46 -49 -79 0 -20 -5 -54 -11
-76 -6 -22 -14 -69 -19 -105 -5 -36 -14 -90 -20 -120 -11 -56 -34 -228 -46
-335 -3 -33 -10 -74 -15 -91 -5 -18 -12 -65 -15 -105 -9 -141 -23 -255 -39
-334 -22 -103 -32 -155 -44 -235 -6 -36 -17 -87 -26 -115 -16 -49 -27 -103
-44 -215 -5 -30 -17 -95 -26 -145 -10 -49 -21 -112 -26 -140 -5 -27 -13 -72
-18 -100 -10 -52 -3 -73 41 -119 10 -11 20 -28 24 -38 3 -10 9 -18 14 -18 9 0
86 -89 125 -146 11 -16 43 -54 70 -84 73 -82 140 -161 166 -195 13 -16 28 -35
34 -41 5 -6 25 -29 44 -50 19 -21 53 -59 75 -84 23 -25 59 -67 81 -95 42 -51
105 -124 141 -161 11 -12 38 -43 60 -70 21 -27 55 -66 74 -87 19 -21 39 -46
44 -55 5 -10 18 -24 28 -33 10 -9 30 -34 44 -55 15 -22 42 -52 60 -67 19 -16
42 -43 50 -60 29 -55 426 -457 453 -457 9 -1 219 -3 466 -4 393 -3 628 -14
673 -31 8 -3 19 -2 25 2 21 14 688 20 977 9 l175 -7 85 107 c47 58 104 125
126 148 23 22 59 73 79 111 21 39 60 105 87 148 26 43 48 83 48 88 0 5 3 9 8
9 4 0 16 20 27 45 11 25 23 45 28 45 4 0 7 5 7 11 0 6 11 25 25 43 14 18 25
38 25 44 0 7 5 12 10 12 6 0 10 7 10 15 0 8 3 15 8 15 4 0 16 16 26 35 11 19
23 35 28 35 4 0 8 4 8 10 0 13 71 124 82 128 4 2 8 8 8 14 0 5 11 24 25 42 14
18 25 38 25 44 0 7 5 12 10 12 6 0 10 7 10 15 0 8 5 15 10 15 6 0 10 5 10 10
0 10 49 90 61 100 3 3 30 46 59 95 29 50 55 92 59 95 8 6 147 216 181 275 13
22 27 42 30 45 3 3 22 28 43 56 36 50 37 54 37 137 0 47 -4 88 -10 92 -5 3
-17 30 -26 60 -10 30 -21 55 -26 55 -4 0 -8 10 -8 22 0 12 -10 42 -21 67 -12
25 -33 71 -46 101 -26 58 -48 107 -107 233 -20 43 -36 84 -36 91 0 6 -4 16 -8
22 -5 5 -17 41 -27 79 -10 39 -21 75 -24 80 -4 6 -13 28 -20 50 -8 22 -36 86
-62 143 -27 56 -49 107 -49 112 0 6 -4 18 -9 28 -5 9 -21 49 -36 87 -15 39
-36 88 -46 110 -10 22 -19 47 -21 55 -2 8 -7 18 -11 21 -4 3 -10 25 -12 48 -2
23 -16 62 -30 87 -14 24 -23 49 -20 54 3 6 1 10 -4 10 -6 0 -11 17 -11 38 0
21 -13 63 -29 97 -16 34 -39 92 -51 130 -12 39 -26 79 -30 90 -5 11 -12 31
-15 45 -12 42 -34 70 -58 70 -12 0 -35 9 -52 20 -30 21 -51 31 -230 115 -89
42 -298 146 -500 249 -38 19 -106 51 -150 71 -44 19 -87 40 -95 45 -8 6 -31
17 -50 26 -57 24 -79 36 -189 97 -57 31 -106 57 -110 57 -4 0 -38 16 -75 35
-38 19 -75 35 -83 35 -7 0 -23 9 -34 19 -25 23 -116 71 -135 71 -8 0 -14 3
-14 8 0 4 -15 13 -32 21 -18 8 -61 27 -95 43 -73 33 -175 38 -233 11z m-50
-149 c0 -14 -100 -218 -130 -264 -5 -8 -44 -82 -86 -165 -42 -82 -102 -195
-132 -250 -30 -55 -70 -129 -89 -165 -19 -36 -41 -69 -50 -74 -23 -13 -509 19
-808 54 -44 5 -130 9 -191 9 -129 1 -174 8 -174 27 0 8 7 14 15 14 8 0 15 4
15 9 0 9 60 40 137 72 18 8 33 17 33 21 0 5 7 8 15 8 8 0 23 4 33 9 9 6 31 16
47 24 17 8 48 23 70 35 22 11 61 29 87 39 27 10 48 21 48 26 0 4 4 7 9 7 5 0
38 16 73 36 62 36 350 181 418 212 59 26 114 54 130 67 8 6 42 24 75 40 148
69 290 140 293 147 2 5 10 8 18 8 13 0 33 11 109 57 27 16 35 16 35 -3z m370
9 c0 -9 48 -33 65 -33 11 0 171 -91 192 -109 7 -6 15 -11 17 -11 3 0 29 -15
58 -32 88 -55 101 -61 488 -253 206 -102 383 -190 392 -195 10 -6 25 -10 33
-10 8 0 15 -4 15 -8 0 -5 17 -15 37 -23 20 -8 57 -24 82 -36 24 -13 48 -23 53
-23 12 0 78 -50 78 -59 0 -12 -58 -32 -121 -42 -35 -6 -77 -16 -94 -24 -32
-15 -212 -51 -329 -65 -39 -5 -100 -15 -136 -23 -36 -8 -124 -18 -197 -22
l-132 -8 -26 59 c-14 33 -39 73 -55 89 -34 36 -96 137 -180 295 -34 63 -72
129 -85 146 -13 16 -46 68 -73 115 -28 46 -60 94 -72 107 -20 22 -89 148 -90
165 0 4 18 7 40 7 22 0 40 -3 40 -7z m113 -1016 c126 -33 280 -83 337 -110 25
-11 66 -28 92 -38 54 -20 219 -132 263 -179 17 -18 50 -46 75 -63 25 -17 84
-71 133 -119 70 -71 96 -105 131 -175 23 -49 55 -110 70 -138 15 -27 36 -81
47 -120 11 -38 30 -92 42 -120 20 -46 22 -71 25 -289 3 -219 2 -246 -18 -330
-13 -53 -43 -132 -72 -191 -39 -78 -54 -122 -69 -202 -34 -190 -145 -355 -323
-483 -25 -18 -46 -37 -46 -41 0 -20 -323 -185 -341 -174 -5 4 -9 1 -9 -5 0 -6
-4 -9 -8 -6 -5 3 -32 -6 -62 -20 -29 -13 -92 -31 -139 -40 -114 -20 -462 -30
-566 -16 -107 15 -245 55 -325 95 -316 158 -389 204 -461 293 -50 61 -130 170
-163 223 -157 249 -184 302 -230 455 -35 115 -36 123 -36 280 0 106 5 182 15
221 8 33 14 98 15 145 0 90 33 248 68 330 26 59 119 221 171 295 87 125 228
271 314 328 45 30 98 60 117 67 19 7 79 35 134 62 192 97 196 98 476 94 224
-3 253 -5 343 -29z m1713 -184 c26 -54 49 -100 53 -103 13 -10 39 -90 29 -90
-5 0 -2 -7 6 -16 14 -14 21 -35 17 -56 0 -5 3 -8 8 -8 5 0 12 -15 16 -32 4
-18 26 -80 48 -138 23 -58 42 -109 43 -115 8 -43 27 -95 38 -104 8 -7 24 -49
36 -94 12 -45 29 -93 38 -107 21 -32 39 -89 37 -118 -1 -12 1 -22 5 -22 7 0
33 -56 51 -110 7 -19 15 -39 19 -45 3 -5 14 -32 24 -60 10 -27 29 -75 43 -105
52 -112 103 -244 103 -267 l0 -23 -56 30 c-30 17 -65 40 -77 51 -12 11 -34 28
-49 37 -16 9 -28 20 -28 24 0 4 -9 8 -19 8 -11 0 -21 3 -23 8 -1 4 -28 25 -58
47 -30 22 -57 42 -60 45 -3 3 -21 16 -40 28 -19 12 -47 32 -62 44 -54 47 -67
57 -86 67 -11 6 -26 17 -34 24 -7 7 -38 30 -68 52 -30 22 -61 45 -68 52 -7 7
-17 13 -21 13 -4 0 -16 8 -27 19 -11 10 -38 30 -60 44 -88 58 -89 59 -89 134
0 60 11 114 35 178 4 11 15 54 24 95 16 71 22 96 46 188 18 71 42 157 50 177
4 11 12 43 18 70 28 132 45 201 53 210 5 5 9 19 9 31 0 19 7 27 28 33 1 1 23
-43 48 -96z m-3964 50 c19 -22 88 -166 118 -248 12 -33 26 -70 31 -83 5 -13 9
-31 9 -42 0 -10 3 -20 8 -22 4 -1 24 -57 46 -123 21 -66 58 -160 82 -210 53
-111 114 -256 114 -273 0 -7 -35 -52 -77 -100 -42 -48 -93 -106 -113 -129 -21
-23 -39 -41 -41 -40 -2 1 -3 0 -2 -2 6 -10 -20 -41 -34 -41 -9 0 -13 -3 -10
-6 4 -4 -10 -24 -31 -45 -56 -57 -123 -129 -159 -171 -18 -21 -35 -38 -39 -38
-3 0 -16 -12 -28 -27 -56 -72 -121 -133 -153 -144 -44 -14 -54 -2 -42 50 17
72 49 268 63 391 8 69 27 202 41 295 14 94 30 197 35 230 5 33 14 83 19 110 5
28 17 95 25 150 17 106 29 172 47 245 13 56 24 115 38 204 15 93 23 103 53 69z
m4592 -1917 c-3 -11 -18 -41 -31 -66 -14 -25 -37 -67 -50 -95 -28 -56 -96
-158 -129 -194 -13 -13 -31 -40 -41 -60 -10 -20 -21 -38 -24 -41 -3 -3 -34
-53 -68 -112 -35 -58 -70 -114 -80 -125 -36 -40 -68 -90 -78 -123 -5 -19 -70
-125 -144 -235 -74 -110 -148 -222 -164 -250 -16 -27 -47 -70 -70 -95 -23 -25
-52 -60 -64 -77 -24 -36 -51 -42 -72 -17 -7 9 -16 62 -21 132 -4 64 -12 164
-17 222 -5 58 -12 150 -15 205 -4 55 -11 143 -16 195 -5 52 -12 159 -14 238
l-5 142 95 45 c52 25 99 45 104 45 6 0 10 5 10 10 0 6 6 10 14 10 8 0 34 11
57 25 24 14 53 25 65 25 11 0 24 4 30 8 5 5 50 21 99 36 183 55 321 98 340
106 57 24 268 77 283 72 8 -3 10 -12 6 -26z m-4640 -218 c22 -6 45 -15 50 -20
6 -4 27 -8 47 -8 21 0 40 -4 44 -9 3 -5 31 -17 63 -26 31 -8 65 -20 74 -25 10
-6 27 -10 38 -10 11 0 20 -4 20 -10 0 -5 8 -10 18 -10 10 0 51 -11 92 -25 41
-13 83 -25 93 -25 9 0 17 -4 17 -10 0 -5 12 -10 28 -10 51 0 180 -33 234 -61
10 -5 23 -9 29 -9 6 0 16 -6 23 -12 22 -23 128 -441 141 -558 10 -83 52 -304
76 -400 12 -47 25 -107 29 -133 13 -95 -18 -73 -218 158 -19 22 -60 67 -91
100 -31 33 -75 82 -96 109 -22 28 -56 66 -75 86 -19 20 -47 52 -62 71 -15 19
-42 51 -60 70 -34 37 -43 47 -93 114 -16 22 -38 49 -48 60 -11 11 -31 38 -45
60 -14 22 -31 46 -39 53 -7 7 -13 16 -13 20 0 4 -13 21 -28 37 -15 17 -57 71
-92 120 -35 50 -69 95 -75 101 -5 7 -19 24 -29 39 -11 14 -28 36 -38 47 -10
12 -18 24 -18 27 0 3 -14 20 -30 38 -30 32 -39 63 -19 63 7 0 30 -5 53 -12z
m2423 -865 c87 -41 354 -217 417 -275 11 -10 23 -18 26 -18 4 0 17 -9 29 -19
67 -59 205 -138 336 -194 177 -76 216 -104 202 -141 -6 -14 -29 -17 -189 -17
-101 -1 -202 -1 -225 0 -24 1 -43 -3 -43 -8 0 -13 -591 -7 -790 9 -85 7 -186
9 -225 6 -96 -8 -483 -8 -522 0 -28 5 -31 9 -23 25 6 10 26 26 45 35 19 8 39
22 46 30 6 8 16 14 21 14 5 0 32 19 61 41 28 23 61 45 72 50 29 12 92 55 184
127 44 34 85 62 90 62 5 0 11 4 13 8 2 5 30 26 63 47 33 21 62 40 65 44 3 3
22 15 43 26 20 11 37 22 37 25 0 3 22 19 50 35 27 17 50 33 50 38 0 4 4 7 10
7 5 0 27 16 47 35 20 19 41 35 45 35 4 0 33 -12 65 -27z"/>
</g>
</svg>
