<svg xmlns="http://www.w3.org/2000/svg" viewBox="40 90 670 120">
  <defs>
    <linearGradient id="lswLsilver" x1="0" y1="0" x2="0" y2="1"><stop offset="0%" stop-color="#e8e8e8"/><stop offset="20%" stop-color="#d0d0d0"/><stop offset="40%" stop-color="#f0f0f0"/><stop offset="60%" stop-color="#b8b8b8"/><stop offset="80%" stop-color="#d8d8d8"/><stop offset="100%" stop-color="#a0a0a0"/></linearGradient>
    <linearGradient id="lswLdarkSilver" x1="0" y1="0" x2="0" y2="1"><stop offset="0%" stop-color="#404040"/><stop offset="20%" stop-color="#606060"/><stop offset="50%" stop-color="#2a2a2a"/><stop offset="80%" stop-color="#4a4a4a"/><stop offset="100%" stop-color="#111"/></linearGradient>
    <linearGradient id="lswLbrass" x1="0" y1="0" x2="0" y2="1"><stop offset="0%" stop-color="#d4a84b"/><stop offset="25%" stop-color="#c49a3c"/><stop offset="50%" stop-color="#dbb463"/><stop offset="75%" stop-color="#b8923a"/><stop offset="100%" stop-color="#a07830"/></linearGradient>
    <linearGradient id="lswLblackGrip" x1="0" y1="0" x2="0" y2="1"><stop offset="0%" stop-color="#3a3a3a"/><stop offset="30%" stop-color="#1a1a1a"/><stop offset="50%" stop-color="#2a2a2a"/><stop offset="70%" stop-color="#0a0a0a"/><stop offset="100%" stop-color="#2a2a2a"/></linearGradient>
    <linearGradient id="lswLemitterGrad" x1="0" y1="0" x2="0" y2="1"><stop offset="0%" stop-color="#d8d8d8"/><stop offset="20%" stop-color="#c8c8c8"/><stop offset="50%" stop-color="#e0e0e0"/><stop offset="80%" stop-color="#a8a8a8"/><stop offset="100%" stop-color="#b0b0b0"/></linearGradient>
    <linearGradient id="lswLpommelGrad" x1="0" y1="0" x2="0" y2="1"><stop offset="0%" stop-color="#d0d0d0"/><stop offset="40%" stop-color="#b0b0b0"/><stop offset="60%" stop-color="#c8c8c8"/><stop offset="100%" stop-color="#989898"/></linearGradient>
    <linearGradient id="lswLchrome" x1="0" y1="0" x2="0" y2="1"><stop offset="0%" stop-color="#fff"/><stop offset="30%" stop-color="#e0e0e0"/><stop offset="60%" stop-color="#c0c0c0"/><stop offset="100%" stop-color="#a0a0a0"/></linearGradient>
    <linearGradient id="lswLlabel" x1="0" y1="0" x2="0" y2="1"><stop offset="0%" stop-color="#d4a84b"/><stop offset="50%" stop-color="#c89840"/><stop offset="100%" stop-color="#b08030"/></linearGradient>
  </defs>
  <polygon points="50,150 80,125 80,175" fill="url(#lswLdarkSilver)" stroke="#707070" stroke-width="0.5"/>
  <rect x="78" y="118" width="30" height="64" rx="2" fill="url(#lswLpommelGrad)" stroke="#909090" stroke-width="0.5"/>
  <rect x="105" y="115" width="8" height="70" rx="1" fill="url(#lswLsilver)" stroke="#888" stroke-width="0.5"/>
  <rect x="112" y="118" width="280" height="64" rx="1" fill="url(#lswLsilver)" stroke="#999" stroke-width="0.5"/>
  <rect x="112" y="115" width="6" height="70" fill="url(#lswLchrome)" stroke="#aaa" stroke-width="0.5"/>
  <rect x="130" y="160" width="250" height="10" rx="1" fill="url(#lswLlabel)" opacity="0.7"/>
  <rect x="130" y="172" width="180" height="7" rx="1" fill="url(#lswLlabel)" opacity="0.5"/>
  <rect x="200" y="120" width="80" height="30" rx="1" fill="#f0f0f0" stroke="#bbb" stroke-width="0.5"/>
  <g stroke="#999" stroke-width="1.2"><line x1="205" y1="122" x2="205" y2="148"/><line x1="209" y1="122" x2="209" y2="148"/><line x1="213" y1="122" x2="213" y2="148"/><line x1="217" y1="122" x2="217" y2="148"/><line x1="221" y1="122" x2="221" y2="148"/><line x1="225" y1="122" x2="225" y2="148"/><line x1="229" y1="122" x2="229" y2="148"/><line x1="233" y1="122" x2="233" y2="148"/><line x1="237" y1="122" x2="237" y2="148"/><line x1="241" y1="122" x2="241" y2="148"/><line x1="245" y1="122" x2="245" y2="148"/><line x1="249" y1="122" x2="249" y2="148"/><line x1="253" y1="122" x2="253" y2="148"/><line x1="257" y1="122" x2="257" y2="148"/><line x1="261" y1="122" x2="261" y2="148"/><line x1="265" y1="122" x2="265" y2="148"/><line x1="269" y1="122" x2="269" y2="148"/><line x1="273" y1="122" x2="273" y2="148"/></g>
  <rect x="395" y="118" width="220" height="64" rx="0" fill="url(#lswLblackGrip)"/>
  <g><rect x="395" y="118" width="220" height="3.5" fill="#2a2a2a"/><rect x="395" y="121.5" width="220" height="2" fill="#0a0a0a"/><rect x="395" y="123.5" width="220" height="3.5" fill="#2a2a2a"/><rect x="395" y="127" width="220" height="2" fill="#0a0a0a"/><rect x="395" y="129" width="220" height="3.5" fill="#2a2a2a"/><rect x="395" y="132.5" width="220" height="2" fill="#0a0a0a"/><rect x="395" y="134.5" width="220" height="3.5" fill="#2a2a2a"/><rect x="395" y="138" width="220" height="2" fill="#0a0a0a"/><rect x="395" y="140" width="220" height="3.5" fill="#2a2a2a"/><rect x="395" y="143.5" width="220" height="2" fill="#0a0a0a"/><rect x="395" y="145.5" width="220" height="3.5" fill="#2a2a2a"/><rect x="395" y="149" width="220" height="2" fill="#0a0a0a"/><rect x="395" y="151" width="220" height="3.5" fill="#2a2a2a"/><rect x="395" y="154.5" width="220" height="2" fill="#0a0a0a"/><rect x="395" y="156.5" width="220" height="3.5" fill="#2a2a2a"/><rect x="395" y="160" width="220" height="2" fill="#0a0a0a"/><rect x="395" y="162" width="220" height="3.5" fill="#2a2a2a"/><rect x="395" y="165.5" width="220" height="2" fill="#0a0a0a"/><rect x="395" y="167.5" width="220" height="3.5" fill="#2a2a2a"/><rect x="395" y="171" width="220" height="2" fill="#0a0a0a"/><rect x="395" y="173" width="220" height="3.5" fill="#2a2a2a"/><rect x="395" y="176.5" width="220" height="2" fill="#0a0a0a"/><rect x="395" y="178.5" width="220" height="3.5" fill="#2a2a2a"/></g>
  <rect x="388" y="115" width="8" height="70" rx="1" fill="url(#lswLdarkSilver)" stroke="#888" stroke-width="0.5"/>
  <rect x="615" y="122" width="25" height="56" rx="2" fill="url(#lswLbrass)" stroke="#8a6a20" stroke-width="0.5"/>
  <rect x="638" y="128" width="20" height="44" rx="1" fill="url(#lswLdarkSilver)" stroke="#888" stroke-width="0.5"/>
  <ellipse cx="668" cy="150" rx="8" ry="45" fill="url(#lswLemitterGrad)" stroke="#999" stroke-width="0.5"/>
  <rect x="665" y="100" width="15" height="100" rx="2" fill="url(#lswLsilver)" stroke="#999" stroke-width="0.5"/>
  <path d="M678,95 L685,95 Q695,95 695,105 L695,195 Q695,205 685,205 L678,205 Z" fill="url(#lswLemitterGrad)" stroke="#aaa" stroke-width="0.5"/>
  <rect x="692" y="105" width="10" height="90" rx="3" fill="url(#lswLsilver)" stroke="#bbb" stroke-width="0.5"/>
  <rect x="75" y="115" width="5" height="70" rx="1" fill="#b0b0b0" stroke="#888" stroke-width="0.5"/>
</svg>
